<svg width="21" height="22" viewBox="0 0 21 22" fill="none" xmlns="http://www.w3.org/2000/svg">
<path d="M16.6178 1.34593H4.39184C4.44978 0.475034 4.96161 0 5.87904 0H15.121C16.048 0 16.5502 0.475034 16.6178 1.34593Z" fill="white"/>
<path d="M18.5879 4.20603H2.42178C2.55698 3.26586 3.02052 2.73144 4.04418 2.73144H16.9655C17.9891 2.73144 18.4527 3.26586 18.5879 4.20603Z" fill="white"/>
<path d="M17.4387 22H3.56132C1.54297 22 0.5 20.9312 0.5 18.8925V8.92668C0.5 6.87809 1.54297 5.81916 3.56132 5.81916H17.4387C19.4474 5.81916 20.5 6.88799 20.5 8.92668V18.8925C20.5 20.9312 19.4474 22 17.4387 22Z" fill="white"/>
</svg>
